<?xml version="1.0" encoding="UTF-8" standalone="no"?>
<svg width="50px" height="50px" viewBox="0 0 50 50" version="1.1" xmlns="http://www.w3.org/2000/svg" xmlns:xlink="http://www.w3.org/1999/xlink">
    <!-- Generator: Sketch 47.1 (45422) - http://www.bohemiancoding.com/sketch -->
    <title>icon wechat</title>
    <desc>Created with Sketch.</desc>
    <defs>
        <path d="M25,50 C38.8071187,50 50,38.8071187 50,25 C50,11.1928813 38.8071187,0 25,0 C11.1928813,0 0,11.1928813 0,25 C0,38.8071187 11.1928813,50 25,50 Z" id="path-1"></path>
    </defs>
    <g id="01小程序分享红包" stroke="none" stroke-width="1" fill="none" fill-rule="evenodd">
        <g id="1-3.订单详情页-分享到微信" transform="translate(-97.000000, -563.000000)">
            <g id="SHEET" transform="translate(0.000000, 497.000000)">
                <g id="Group-5">
                    <g id="分享模块" transform="translate(63.000000, 30.000000)">
                        <g id="邀请好友" transform="translate(34.000000, 36.000000)">
                            <g id="icon">
                                <g id="微信">
                                    <g id="icon-wechat">
                                        <mask id="mask-2" fill="white">
                                            <use xlink:href="#path-1"></use>
                                        </mask>
                                        <use id="Mask" fill="#1AAD19" xlink:href="#path-1"></use>
                                        <g id="Group" mask="url(#mask-2)" fill="#FFFFFF">
                                            <g transform="translate(10.000000, 13.000000)">
                                                <path d="M30,15.8313253 C30,11.6757624 25.9540729,8.31325301 20.9638554,8.31325301 C15.97338,8.31325301 11.9277108,11.6757624 11.9277108,15.8313253 C11.9277108,19.9719245 15.97338,23.3344339 20.9638554,23.3493976 C21.9948111,23.3344339 22.99043,23.1875331 23.9277108,22.9156627 C23.99714,22.8970761 23.991458,22.897908 24.1733104,22.8622312 C24.3551628,22.8265543 24.5133571,22.9156627 24.6506024,22.9879518 L26.6024096,24.1445783 C26.6922753,24.1926842 26.7454094,24.2168675 26.8192771,24.2168675 C26.9775485,24.2168675 27.1119313,24.0823156 27.1084337,23.9277108 C27.1119313,23.8422834 27.0846388,23.7743832 27.0634604,23.7028088 C27.0422819,23.6312344 26.8000864,22.7493501 26.6746988,22.1927711 C26.6569442,22.1139607 26.6472374,22.0685947 26.6472374,21.9193924 C26.6472374,21.7701901 26.7245169,21.609958 26.8915663,21.4698795 C28.7825592,20.1239707 30,18.0866553 30,15.8313253 Z M17.8926616,14.5301205 C17.2891025,14.5301205 16.7710843,14.0124054 16.7710843,13.3384447 C16.7710843,12.7348301 17.2891025,12.2168675 17.8926616,12.2168675 C18.5668145,12.2168675 19.0843373,12.7348301 19.0843373,13.3384447 C19.0843373,14.0124054 18.5668145,14.5301205 17.8926616,14.5301205 M23.8926616,14.5301205 C23.2891025,14.5301205 22.7710843,14.0124054 22.7710843,13.3384447 C22.7710843,12.7348301 23.2891025,12.2168675 23.8926616,12.2168675 C24.5668145,12.2168675 25.0843373,12.7348301 25.0843373,13.3384447 C25.0843373,14.0124054 24.5668145,14.5301205 23.8926616,14.5301205" id="Fill-4"></path>
                                                <path d="M0,9.03614458 C0,11.7288111 1.45993108,14.1731067 3.75903614,15.8313253 C3.92838245,15.9559683 4.01899867,16.0985475 4.01893119,16.3379142 C4.01899867,16.420646 4.00447359,16.5095869 3.97590361,16.626506 C3.78370905,17.4130389 3.57257742,18.3131589 3.54216867,18.4337349 C3.51175993,18.554311 3.46382377,18.6346343 3.46987952,18.7228916 C3.46382377,18.9230308 3.62520764,19.0843373 3.8313253,19.0843373 C3.90337569,19.0843373 3.96756831,19.0550089 4.04819277,19.0120482 L6.43373494,17.6385542 C6.58477127,17.5471659 6.75430629,17.5000647 6.86874059,17.5000647 C6.98317489,17.5000647 7.17416933,17.5355916 7.30120482,17.5662651 C8.40717156,17.8489403 9.60130908,18.0256829 10.8433735,18 C11.0377802,18.0256829 11.2360297,18.0205375 11.4216867,18 C11.1978751,17.3084219 11.069232,16.568007 11.060241,15.8313253 C11.069232,11.2631575 15.4943984,7.58269313 20.9638554,7.59036145 C21.1513413,7.58269313 21.3470128,7.58886754 21.5421687,7.59036145 C20.7259685,3.29276275 16.2448591,0 10.8433735,0 C4.85234378,0 0,4.03549313 0,9.03614458 Z M7.15662651,7.59036145 C6.35802801,7.59036145 5.71084337,6.94323454 5.71084337,6.14457831 C5.71084337,5.34618001 6.35802801,4.69879518 7.15662651,4.69879518 C7.955225,4.69879518 8.60240964,5.34618001 8.60240964,6.14457831 C8.60240964,6.94323454 7.955225,7.59036145 7.15662651,7.59036145 M14.3855422,7.59036145 C13.5868859,7.59036145 12.939759,6.94323454 12.939759,6.14457831 C12.939759,5.34618001 13.5868859,4.69879518 14.3855422,4.69879518 C15.1839405,4.69879518 15.8313253,5.34618001 15.8313253,6.14457831 C15.8313253,6.94323454 15.1839405,7.59036145 14.3855422,7.59036145" id="Fill-6"></path>
                                            </g>
                                        </g>
                                    </g>
                                </g>
                            </g>
                        </g>
                    </g>
                </g>
            </g>
        </g>
    </g>
</svg>
