<svg xmlns="http://www.w3.org/2000/svg" xmlns:xlink="http://www.w3.org/1999/xlink" width="375" height="125" viewBox="0 0 375 125">
    <defs>
        <linearGradient id="a" x1="50%" x2="50%" y1="-64.657%" y2="100%">
            <stop offset="0%" stop-color="#C3472F"/>
            <stop offset="100%" stop-color="#8B1A03"/>
        </linearGradient>
        <path id="b" d="M80.692 110.995c32.956 2.584 67.702 3.875 104.237 3.875 36.559 0 73.019-1.622 109.38-4.867a.635.635 0 0 1 .691.632c0 .4-.29.742-.686.806-36.548 5.879-72.986 8.819-109.314 8.819-36.305 0-71.076-2.608-104.313-7.822a.813.813 0 0 1-.687-.803.642.642 0 0 1 .692-.64z"/>
        <linearGradient id="e" x1="50%" x2="50%" y1="0%" y2="100%">
            <stop offset="0%" stop-color="#F26448"/>
            <stop offset="100%" stop-color="#E0543A"/>
        </linearGradient>
        <path id="d" d="M0 0h375v54.502c-15.124 13.84-30.075 25.34-44.852 34.498-14.776 9.158-32.1 17.66-51.973 25.508-37.242 3.925-67.467 5.887-90.675 5.887s-51.82-1.962-85.835-5.887C82.47 107.022 64.327 98.518 47.233 89 30.14 79.481 14.396 67.982 0 54.502V0z"/>
        <filter id="c" width="102.1%" height="106.6%" x="-1.1%" y="-1.7%" filterUnits="objectBoundingBox">
            <feOffset dy="2" in="SourceAlpha" result="shadowOffsetOuter1"/>
            <feGaussianBlur in="shadowOffsetOuter1" result="shadowBlurOuter1" stdDeviation="1"/>
            <feColorMatrix in="shadowBlurOuter1" values="0 0 0 0 0.490196078 0 0 0 0 0.141176471 0 0 0 0 0.0745098039 0 0 0 0.3 0"/>
        </filter>
    </defs>
    <g fill="none" fill-rule="evenodd">
        <g>
            <use fill="url(#a)" xlink:href="#b"/>
            <path stroke="#B2442F" d="M80.731 110.497c32.943 2.582 67.676 3.873 104.198 3.873 36.544 0 72.99-1.622 109.335-4.865a1.135 1.135 0 0 1 1.236 1.13c0 .646-.469 1.197-1.107 1.3-36.574 5.883-73.038 8.825-109.393 8.825-36.33 0-71.128-2.61-104.39-7.828-.64-.1-1.11-.65-1.11-1.297 0-.63.511-1.142 1.142-1.142.045 0 .045 0 .09.004z"/>
        </g>
        <g>
            <use fill="#000" filter="url(#c)" xlink:href="#d"/>
            <use fill="url(#e)" xlink:href="#d"/>
        </g>
    </g>
</svg>
