<svg xmlns="http://www.w3.org/2000/svg" xmlns:xlink="http://www.w3.org/1999/xlink" width="248" height="26" viewBox="0 0 248 26">
    <defs>
        <path id="b" d="M20.543.078c26.285 5.08 60.53 7.621 102.733 7.621 42.228 0 76.62-2.543 103.179-7.63A3.826 3.826 0 0 1 231 3.826a5.743 5.743 0 0 1-4.62 5.632c-26.795 5.338-61.163 8.006-103.104 8.006-41.916 0-76.134-2.665-102.655-7.996A5.755 5.755 0 0 1 16 3.826 3.818 3.818 0 0 1 20.543.078z"/>
        <filter id="a" width="106.5%" height="180.2%" x="-3.3%" y="-28.6%" filterUnits="objectBoundingBox">
            <feOffset dy="2" in="SourceAlpha" result="shadowOffsetOuter1"/>
            <feGaussianBlur in="shadowOffsetOuter1" result="shadowBlurOuter1" stdDeviation="2"/>
            <feColorMatrix in="shadowBlurOuter1" values="0 0 0 0 0 0 0 0 0 0 0 0 0 0 0 0 0 0 0.3 0"/>
        </filter>
    </defs>
    <g fill="none" fill-rule="evenodd">
        <use fill="#000" filter="url(#a)" transform="translate(0 1)" xlink:href="#b"/>
        <path fill="#CD533E" d="M10.688 5.693C46.683 9.959 84.454 12.092 124 12.092c39.546 0 77.317-2.133 113.312-6.4A9.563 9.563 0 0 1 248 15.19c0 5.983-4.85 10.833-10.833 10.833H10.833C4.85 26.022 0 21.172 0 15.19a9.563 9.563 0 0 1 10.688-9.496z"/>
    </g>
</svg>
