<svg xmlns="http://www.w3.org/2000/svg" width="48" height="14" viewBox="0 0 48 14">
    <g fill="none" fill-rule="evenodd">
        <path fill="#2395FF" d="M2 0h44a2 2 0 0 1 2 2v10a2 2 0 0 1-2 2H2a2 2 0 0 1-2-2V2a2 2 0 0 1 2-2z"/>
        <g fill="#FFF">
            <path d="M25.031 3.201c.251 0 .454.224.454.489v.285a.178.178 0 0 1-.174.183h-.56a.178.178 0 0 1-.174-.183v-.59c0-.102.077-.184.174-.184h.28zm-5.288.53c.251 0 .454.213.454.478v1.69a.178.178 0 0 1-.174.182h-.503a.178.178 0 0 1-.174-.183V4.87a.177.177 0 0 0-.174-.183h-.947c-.097 0-.174-.102-.174-.204V3.384c0-.101.077-.183.174-.183h.619c.096 0 .174.082.174.183v.346h.725zm-.203 6.116c.096 0 .174.081.174.183v.59a.178.178 0 0 1-.174.183h-.61c-.463 0-.83-.396-.83-.875v-4.62c0-.102.077-.183.173-.183h.561c.097 0 .174.081.174.183v4.386c0 .082.068.153.145.153h.387zm12.877-2.799H31.692a.178.178 0 0 1-.174-.183c0-.04.02-.092.048-.122l2.688-3.308a.431.431 0 0 1 .106-.081c.01 0 .01-.01.02-.01.028-.01.067-.02.106-.03h.754c.097 0 .174.08.174.182 0 .041-.02.092-.048.122l-2.659 3.277c0 .01-.01.02-.02.031a.431.431 0 0 1-.106.081c-.01 0-.01.01-.019.01-.029.01-.068.02-.106.031h-.039zm-.416-3.358v.173c0 .152-.029.224-.048.244-.03.03-2.03 2.493-2.03 2.493a.457.457 0 0 0-.107.295v3.033c0 .51-.386.916-.87.916h-1.682c-.097 0-.184-.071-.184-.173v-.437c0-.214.165-.377.358-.377h1.276c.087 0 .155-.071.155-.163V6.57c0-.122.048-.244.126-.336l1.508-1.944c.01-.01.01-.03.01-.04 0-.031-.03-.062-.059-.062l-4.012-.01h-.135a.437.437 0 0 1-.164-.04.357.357 0 0 1-.184-.326v-.387c0-.102.087-.193.184-.193H31.654c.009.01.019.01.038.01.02 0 .029.01.039.01.154.071.27.244.27.438zm6.932 6.208c0 .01 0 .01 0 0 0 .509-.387.905-.85.885H32.184a.466.466 0 0 1-.454-.478v-.244c0-.112.058-.173.106-.245l5.027-6.208c0-.01.01-.02.02-.03a.431.431 0 0 1 .106-.082c.01 0 .01-.01.02-.01.028-.01.067-.02.105-.03h.832c.096 0 .174.081.174.183 0 .04-.02.091-.049.122l-4.795 5.954c-.01.01-.01.03-.01.04 0 .03.02.061.05.061h4.523a.146.146 0 0 0 .145-.152v-1.14c0-.112.087-.194.184-.194h.406c.203 0 .358.173.358.377v1.191zm-13.448.305v.417a.178.178 0 0 1-.174.183h-1.276c-.464 0-.831-.386-.831-.915V6.08H22.11v1.211h.377c.078 0 .145.072.145.153v.651c0 .082-.067.153-.145.153h-.377v1.67c0 .488-.377.874-.831.874h-.628a.178.178 0 0 1-.174-.183v-.59c0-.102.077-.183.174-.183h.406c.077 0 .145-.072.145-.153V8.239h-.57c-.078 0-.146-.071-.146-.153v-.651c0-.082.068-.153.145-.153h.57v-1.2h-.54a.178.178 0 0 1-.175-.184v-.59c0-.102.078-.183.174-.183h.542v-.957h-.542a.178.178 0 0 1-.174-.183v-.59c0-.102.078-.184.174-.184h1.818c.096 0 .174.082.174.183v.59a.178.178 0 0 1-.174.184h-.368v.957h1.093v-1.73c0-.102.077-.184.174-.184h.56c.097 0 .175.082.175.183v1.73h1.189c.096 0 .174.082.174.184v.59a.178.178 0 0 1-.174.183h-1.19v1.211h1.219c.077 0 .145.072.145.153v.651c0 .082-.068.153-.145.153h-1.218v1.425c0 .091.077.173.164.173h.87c.184 0 .338.163.338.356zM10.726 3.643c1.754-1.198 4.095-.67 5.24 1.157.059.112.116.213.174.325v.01c.039.102.01.224-.077.284l-3.535 2.417c-.097.07-.222.04-.29-.061l-.182-.294a.593.593 0 0 1 .164-.792l2.263-1.554a.224.224 0 0 0 .058-.304c-.01-.02-.02-.041-.038-.051a2.578 2.578 0 0 0-3.17-.183c-1.242.863-1.599 2.62-.79 3.93.81 1.309 2.476 1.685 3.719.832a.529.529 0 0 1 .751.172l.174.285a.229.229 0 0 1-.049.294 2.247 2.247 0 0 1-.289.223c-1.753 1.198-4.094.68-5.24-1.167-1.137-1.848-.636-4.315 1.117-5.523zm5.28 3.228a.217.217 0 0 1 .288.061l.232.376a.69.69 0 0 1-.183.924l-.357.243c-.096.072-.221.041-.289-.06l-.462-.752a.224.224 0 0 1 .058-.304l.712-.488z"/>
        </g>
    </g>
</svg>
