<svg xmlns="http://www.w3.org/2000/svg" width="16" height="16" viewBox="0 0 16 16">
    <g fill="#FFF089" fill-rule="evenodd">
        <path d="M3.553 1.266c-3.608 2.38-4.64 7.24-2.3 10.88 2.36 3.64 7.178 4.66 10.786 2.3.218-.14.416-.28.595-.44a.437.437 0 0 0 .099-.58l-.357-.56a1.116 1.116 0 0 0-1.546-.34c-2.558 1.68-5.988.94-7.653-1.64-1.666-2.58-.932-6.04 1.625-7.74a5.493 5.493 0 0 1 6.523.36c.04.02.06.06.08.1.138.2.079.46-.12.6l-4.659 3.06a1.138 1.138 0 0 0-.337 1.56l.377.58c.139.2.397.26.595.12l7.276-4.76a.47.47 0 0 0 .159-.56v-.02c-.12-.22-.238-.42-.357-.64-2.36-3.6-7.177-4.64-10.786-2.28z"/>
        <path d="M14.418 7.626l-1.467.96a.429.429 0 0 0-.119.6l.952 1.48c.139.2.396.26.595.12l.733-.48c.595-.4.773-1.2.377-1.82l-.476-.74a.459.459 0 0 0-.595-.12z"/>
    </g>
</svg>
