<?xml version="1.0" encoding="UTF-8" standalone="no"?>
<svg width="24px" height="24px" viewBox="0 0 24 24" version="1.1" xmlns="http://www.w3.org/2000/svg" xmlns:xlink="http://www.w3.org/1999/xlink">
    <!-- Generator: Sketch 48.2 (47327) - http://www.bohemiancoding.com/sketch -->
    <title>icon</title>
    <desc>Created with Sketch.</desc>
    <defs></defs>
    <g id="1.2-选择心意卡" stroke="none" stroke-width="1" fill="none" fill-rule="evenodd" transform="translate(-319.000000, -916.000000)">
        <g id="cell01" transform="translate(64.000000, 879.000000)">
            <g id="icon" transform="translate(255.000000, 37.000000)">
                <circle id="Oval-9" stroke="#BBBBBB" stroke-width="1.5" cx="12" cy="12" r="11.25"></circle>
                <path d="M12.22,4.44 C13.5,4.44 14.54,4.78 15.34,5.5 C16.14,6.2 16.54,7.16 16.54,8.36 C16.54,9.34 16.28,10.16 15.78,10.8 C15.6,11.02 15.04,11.54 14.1,12.36 C13.72,12.68 13.44,13.04 13.26,13.4 C13.04,13.8 12.94,14.24 12.94,14.72 L12.94,15.06 L10.8,15.06 L10.8,14.72 C10.8,13.98 10.92,13.34 11.2,12.82 C11.46,12.26 12.22,11.44 13.46,10.34 L13.8,9.96 C14.16,9.5 14.36,9.02 14.36,8.5 C14.36,7.8 14.16,7.26 13.78,6.86 C13.38,6.46 12.8,6.26 12.08,6.26 C11.18,6.26 10.52,6.54 10.12,7.12 C9.76,7.6 9.58,8.28 9.58,9.16 L7.48,9.16 C7.48,7.7 7.9,6.56 8.74,5.72 C9.58,4.86 10.74,4.44 12.22,4.44 Z M11.86,16.14 C12.28,16.14 12.64,16.26 12.92,16.54 C13.2,16.8 13.34,17.14 13.34,17.56 C13.34,17.98 13.18,18.32 12.9,18.6 C12.62,18.86 12.26,19 11.86,19 C11.46,19 11.1,18.86 10.82,18.58 C10.54,18.3 10.4,17.96 10.4,17.56 C10.4,17.14 10.54,16.8 10.82,16.54 C11.1,16.26 11.46,16.14 11.86,16.14 Z" id="？" fill="#BBBBBB"></path>
            </g>
        </g>
    </g>
</svg>