<?xml version="1.0" encoding="UTF-8" standalone="no"?>
<svg width="10px" height="10px" viewBox="0 0 10 10" version="1.1" xmlns="http://www.w3.org/2000/svg" xmlns:xlink="http://www.w3.org/1999/xlink">
    <!-- Generator: Sketch 47.1 (45422) - http://www.bohemiancoding.com/sketch -->
    <title>arrow_down </title>
    <desc>Created with Sketch.</desc>
    <defs></defs>
    <g id="Page-1" stroke="none" stroke-width="1" fill="none" fill-rule="evenodd">
        <g id="1-12-搜索-店铺维度搜索-页面上滑" transform="translate(-286.000000, -581.000000)" fill="#A7A7A7">
            <g id="cell04" transform="translate(0.000000, 566.000000)">
                <g id="展开更多商品" transform="translate(168.000000, 14.000000)">
                    <g id="arrow-" transform="translate(118.000000, 1.000000)">
                        <path d="M5.04092191,6.26782971 L0.825616283,2.33699362 C0.680547292,2.2017146 0.445374175,2.20637798 0.307572726,2.35415194 C0.173801373,2.49760415 0.178286985,2.73383279 0.326593092,2.87213047 L4.78413982,7.02886004 C4.92920881,7.16413906 5.16438192,7.15947568 5.30218337,7.01170172 C5.31201852,7.00115481 5.32110632,6.99010641 5.32944456,6.97863229 C5.36660463,6.95960253 5.40108553,6.93563008 5.43140391,6.90682695 L9.65627832,2.89310412 C9.81404428,2.74322301 9.82619863,2.49760415 9.66906602,2.32910006 L9.71578853,2.37920382 C9.56508501,2.21759409 9.31185613,2.21107079 9.15108061,2.36378388 L5.04092191,6.26782971 Z" id="Combined-Shape"></path>
                    </g>
                </g>
            </g>
        </g>
    </g>
</svg>