<?xml version="1.0" encoding="UTF-8" standalone="no"?>
<svg width="32px" height="32px" viewBox="0 0 32 32" version="1.1" xmlns="http://www.w3.org/2000/svg" xmlns:xlink="http://www.w3.org/1999/xlink">
    <!-- Generator: Sketch 46.1 (44463) - http://www.bohemiancoding.com/sketch -->
    <title>success</title>
    <desc>Created with Sketch.</desc>
    <defs></defs>
    <g id="Page-3" stroke="none" stroke-width="1" fill="none" fill-rule="evenodd">
        <g id="02天降红包弹窗-3个以下-领取成功" transform="translate(-175.000000, -994.000000)" fill-rule="nonzero" fill="#FEF0CA">
            <g id="Group-3" transform="translate(55.000000, 158.000000)">
                <g id="Group-4" transform="translate(120.000000, 832.000000)">
                    <path d="M16,36 C7.17037038,36 0,28.8296296 0,20 C0,11.1703704 7.17037038,4 16,4 C24.8296296,4 32,11.1703704 32,20 C32,28.8296296 24.8296296,36 16,36 Z M13.9259259,26.2814815 C14.4592593,26.2814815 14.9925926,26.1037037 15.4074074,25.6888889 L23.3481482,17.7481482 C24.1777778,16.9185185 24.1777778,15.6148148 23.3481482,14.7851852 C22.5185185,13.9555556 21.2148148,13.9555556 20.3851852,14.7851852 L13.8666667,21.3037037 L11.5555556,18.9925926 C10.7259259,18.162963 9.42222222,18.162963 8.65185184,18.9925926 C7.82222222,19.8222222 7.82222222,21.1259259 8.65185184,21.8962963 L12.4444444,25.6888889 C12.8592593,26.1037037 13.3925926,26.2814815 13.9259259,26.2814815 Z" id="success"></path>
                </g>
            </g>
        </g>
    </g>
</svg>
