<svg width="44px" height="44px" viewBox="0 0 44 44" version="1.1" xmlns="http://www.w3.org/2000/svg" xmlns:xlink="http://www.w3.org/1999/xlink">
    <g id="Symbols" stroke="none" stroke-width="1" fill="none" fill-rule="evenodd">
        <g id="close" transform="translate(-8.000000, -8.000000)" fill="#FFFFFF">
            <g id="Group" transform="translate(7.000000, 7.000000)">
                <path d="M21.8571429,21.8571429 L8.14285714,21.8571429 L8.14285714,21.8571429 C7.51167457,21.8571429 7,22.3688174 7,23 C7,23.6311826 7.51167457,24.1428571 8.14285714,24.1428571 L21.8571429,24.1428571 L21.8571429,37.8571429 C21.8571429,38.4883254 22.3688174,39 23,39 C23.6311826,39 24.1428571,38.4883254 24.1428571,37.8571429 L24.1428571,37.8571429 L24.1428571,24.1428571 L37.8571429,24.1428571 C38.4883254,24.1428571 39,23.6311826 39,23 C39,22.3688174 38.4883254,21.8571429 37.8571429,21.8571429 L24.1428571,21.8571429 L24.1428571,8.14285714 L24.1428571,8.14285714 C24.1428571,7.51167457 23.6311826,7 23,7 C22.3688174,7 21.8571429,7.51167457 21.8571429,8.14285714 L21.8571429,21.8571429 Z" id="X" transform="translate(23.000000, 23.000000) rotate(45.000000) translate(-23.000000, -23.000000) "></path>
            </g>
        </g>
    </g>
</svg>
