<svg xmlns="http://www.w3.org/2000/svg" width="188" height="48" viewBox="0 0 188 48">
    <g fill="#BB2214" fill-rule="evenodd" opacity=".7">
        <path d="M102.545 0h-2.109c-.727 0-1.309.584-1.309 1.313v4.231c0 .73.582 1.313 1.31 1.313h4.218c.727 0 1.309-.583 1.309-1.313V3.502c0-1.897-1.528-3.502-3.419-3.502zM68.887 3.15h-4.619V1.09c0-.605-.493-1.09-1.109-1.09h-3.941c-.616 0-1.109.485-1.109 1.09v6.543c0 .605.493 1.211 1.109 1.211h6.035c.493 0 1.109.363 1.109 1.09v6.118c0 .606.493 1.09 1.109 1.09h3.202c.616 0 1.109-.484 1.109-1.09V5.997c0-1.575-1.294-2.847-2.895-2.847zM67.258 42.224h-2.456a.945.945 0 0 1-.92-.921V14.82c0-.614-.492-1.106-1.106-1.106h-3.562c-.614 0-1.105.492-1.105 1.106v27.896c0 2.888 2.333 5.284 5.28 5.284h3.87c.613 0 1.105-.492 1.105-1.106V43.33c0-.614-.492-1.106-1.106-1.106zM145.667 27.429h.238c.237-.066.475-.131.653-.197.06 0 .06-.065.118-.065.238-.13.475-.327.654-.523.059-.066.118-.131.118-.196L163.776 5.39c.178-.196.297-.523.297-.784 0-.654-.475-1.177-1.069-1.177H158.372c-.237.065-.474.13-.652.196-.06 0-.06.065-.119.065-.237.13-.475.327-.653.523 0 0-16.209 20.861-16.506 21.254a1.272 1.272 0 0 0-.297.784c0 .654.475 1.178 1.07 1.178h4.452z"/>
        <path d="M143.564 2.681c0-1.132-.722-2.145-1.685-2.562-.06 0-.12-.06-.24-.06s-.181 0-.241-.059H107.107c-.602 0-1.143.536-1.143 1.132v2.264c0 .835.42 1.55 1.143 1.907.3.12.661.239 1.022.239H108.971l24.967.06c.18 0 .361.178.361.357 0 .06 0 .179-.06.238l-9.385 11.381c-.481.537-.782 1.252-.782 1.967v18.293a.946.946 0 0 1-.963.953h-7.94c-1.204 0-2.227.954-2.227 2.205v2.562c0 .596.542 1.013 1.143 1.013h10.468c3.008 0 5.414-2.383 5.414-5.362V21.45c0-.655.241-1.25.662-1.728 0 0 12.453-14.42 12.634-14.598.12-.12.3-.537.3-1.43V2.68zM188 42.61V35.37c0-1.239-.954-2.291-2.207-2.291h-2.505c-.597 0-1.133.495-1.133 1.176v6.933c0 .557-.418.928-.895.928h-27.914c-.18 0-.299-.186-.299-.371 0-.062 0-.186.06-.248l29.584-36.21c.18-.186.299-.496.299-.743 0-.62-.477-1.114-1.074-1.114H176.787c-.24.061-.478.123-.657.185-.06 0-.06.062-.119.062-.238.124-.477.31-.656.495-.06.062-.12.124-.12.186L144.22 42.115c-.298.433-.656.805-.656 1.486v1.485c0 1.61 1.252 2.91 2.803 2.91h36.384c2.863.123 5.249-2.29 5.249-5.386 0 .062 0 .062 0 0zM102.545 41.046c0-1.135-.95-2.09-2.078-2.09h-5.345c-.535 0-1.01-.479-1.01-1.017v-8.364h7.483c.475 0 .891-.418.891-.896v-3.824a.916.916 0 0 0-.89-.896h-7.484v-7.11h7.305c.594 0 1.07-.478 1.07-1.076v-3.465c0-.598-.476-1.076-1.07-1.076h-7.305V1.075C94.112.478 93.637 0 93.043 0H89.6c-.594 0-1.07.478-1.07 1.075v10.157h-6.71V5.616h2.256c.594 0 1.07-.478 1.07-1.075V1.075c0-.597-.476-1.075-1.07-1.075H72.91c-.594 0-1.069.478-1.069 1.075v3.466c0 .597.475 1.075 1.07 1.075h3.325v5.616H72.91c-.594 0-1.069.478-1.069 1.076v3.465c0 .598.475 1.076 1.07 1.076h3.325v7.05h-3.504a.916.916 0 0 0-.89.896v3.824c0 .478.415.896.89.896h3.504V38a.916.916 0 0 1-.89.896H72.85c-.594 0-1.07.478-1.07 1.076v3.465c0 .598.476 1.076 1.07 1.076h3.86c2.791 0 5.108-2.27 5.108-5.139v-9.798h2.316c.475 0 .89-.418.89-.896v-3.824a.916.916 0 0 0-.89-.896h-2.316v-7.11h6.71v22.345c0 3.107 2.257 5.377 5.108 5.377h7.84c.593 0 1.068-.478 1.068-1.075v-2.45zM10.719 3.867C-.167 11.136-3.277 25.98 3.78 37.096c7.117 11.117 21.651 14.232 32.537 7.024.658-.427 1.256-.855 1.794-1.343.538-.428.658-1.16.3-1.772l-1.077-1.71c-1.017-1.588-3.11-2.077-4.666-1.038-7.715 5.13-18.062 2.87-23.087-5.01-5.024-7.879-2.81-18.446 4.905-23.638a16.409 16.409 0 0 1 19.678 1.1c.12.06.179.183.239.305.419.61.24 1.405-.359 1.832l-14.056 9.346c-1.555 1.038-2.033 3.176-1.016 4.764l1.136 1.772c.419.61 1.196.794 1.794.366l21.95-14.537c.54-.367.719-1.1.48-1.71v-.062c-.36-.672-.718-1.283-1.077-1.955C36.138-.164 21.604-3.34 10.719 3.867z"/>
        <path d="M46.805 24.195l-5.11 2.993c-.69.437-.897 1.247-.413 1.87l3.314 4.616a1.57 1.57 0 0 0 2.071.374l2.555-1.497c2.072-1.247 2.693-3.742 1.312-5.675l-1.657-2.307c-.483-.561-1.381-.749-2.072-.374z"/>
    </g>
</svg>
